<svg xmlns:inkscape="http://www.inkscape.org/namespaces/inkscape" xmlns:sodipodi="http://sodipodi.sourceforge.net/DTD/sodipodi-0.dtd" xmlns="http://www.w3.org/2000/svg" xmlns:svg="http://www.w3.org/2000/svg" viewBox="0 0 8.4666672 10.583334" version="1.1" x="0px" y="0px"><g transform="translate(-380.52401,26.427965)"><path style="color:#9aa0a6;" d="m 383.96312,-25.634732 c -1.45811,3e-6 -2.6448,1.188239 -2.6448,2.64635 0,1.458112 1.18669,2.646348 2.6448,2.64635 0.63449,2e-6 1.21767,-0.224582 1.67432,-0.598929 l 2.10839,2.108915 a 0.2645835,0.2645835 0 0 0 0.37311,0 0.2645835,0.2645835 0 0 0 0,-0.375171 l -2.10788,-2.107882 c 0.37366,-0.456441 0.59841,-1.039434 0.59841,-1.673283 1e-5,-1.458116 -1.18823,-2.646353 -2.64635,-2.64635 z m 0,0.529167 c 1.17213,-3e-6 2.11718,0.945051 2.11718,2.117183 0,1.172133 -0.94505,2.117187 -2.11718,2.117184 -1.17213,-2e-6 -2.11563,-0.945055 -2.11563,-2.117184 0,-1.172129 0.9435,-2.117181 2.11563,-2.117183 z" fill="#9aa0a6" stroke-linecap="round" stroke-linejoin="round"/></g><text x="0" y="23.4666672" fill="#9aa0a6" font-size="5px" font-weight="bold" font-family="'Helvetica Neue', Helvetica, Arial-Unicode, Arial, Sans-serif">Created by dokodemo</text><text x="0" y="28.4666672" fill="#9aa0a6" font-size="5px" font-weight="bold" font-family="'Helvetica Neue', Helvetica, Arial-Unicode, Arial, Sans-serif">from the Noun Project</text></svg>